<?xml version="1.0" encoding="UTF-8" standalone="no"?>
<!-- Created with Inkscape (http://www.inkscape.org/) -->

<svg
   width="64.054001mm"
   height="64.054001mm"
   viewBox="0 0 64.053995 64.054001"
   version="1.1"
   id="svg5"
   xml:space="preserve"
   inkscape:version="1.2.1 (9c6d41e410, 2022-07-14)"
   sodipodi:docname="faciconsd.svg"
   xmlns:inkscape="http://www.inkscape.org/namespaces/inkscape"
   xmlns:sodipodi="http://sodipodi.sourceforge.net/DTD/sodipodi-0.dtd"
   xmlns="http://www.w3.org/2000/svg"
   xmlns:svg="http://www.w3.org/2000/svg"><sodipodi:namedview
     id="namedview7"
     pagecolor="#ffffff"
     bordercolor="#000000"
     borderopacity="0.25"
     inkscape:showpageshadow="2"
     inkscape:pageopacity="0.0"
     inkscape:pagecheckerboard="0"
     inkscape:deskcolor="#d1d1d1"
     inkscape:document-units="mm"
     showgrid="false"
     inkscape:zoom="1.5304854"
     inkscape:cx="98.008122"
     inkscape:cy="106.82885"
     inkscape:window-width="1920"
     inkscape:window-height="991"
     inkscape:window-x="2391"
     inkscape:window-y="-9"
     inkscape:window-maximized="1"
     inkscape:current-layer="g192" /><defs
     id="defs2" /><g
     inkscape:label="Layer 1"
     inkscape:groupmode="layer"
     id="layer1"
     transform="translate(-317.30416,-53.297249)" /><g
     id="g192"
     transform="matrix(0.35277776,0,0,0.35277778,-97.304155,-53.297248)"><rect
       style="fill:#ffffff;stroke-width:0;stroke-linejoin:round;paint-order:stroke fill markers;stop-color:#000000"
       id="rect742"
       width="181.5704"
       height="181.57039"
       x="275.82281"
       y="151.07881" /><g
       id="g774"
       transform="translate(133.59197,150.0787)"><path
         d="m 219.52011,125.68781 11.015,35.672 c 4.348,-2.047 8.278,-4.676 11.727,-7.859 l -20.551,-29.204 c -0.695,0.508 -1.43,0.977 -2.191,1.391"
         style="fill:#c21e27;fill-opacity:1;fill-rule:nonzero;stroke:none"
         id="path194" /><path
         d="m 213.68011,127.71881 -0.535,38.45 c 5.097,-0.579 9.871,-1.739 14.265,-3.461 l -11.019,-35.668 c -0.875,0.293 -1.778,0.519 -2.711,0.679"
         style="fill:#c21e27;fill-opacity:1;fill-rule:nonzero;stroke:none"
         id="path196" /><path
         d="m 224.28911,122.07481 20.41,29.004 c 2.996,-3.203 5.563,-6.864 7.661,-10.969 l -26.481,-19.856 c -0.5,0.637 -1.027,1.243 -1.59,1.821"
         style="fill:#c21e27;fill-opacity:1;fill-rule:nonzero;stroke:none"
         id="path198" /><path
         d="m 196.59811,98.296812 -3.703,-2.777 c -0.36,1.168 -0.66,2.402 -0.899,3.695 l 3.477,1.187998 c 0.336,-0.745998 0.711,-1.448998 1.125,-2.105998"
         style="fill:#c21e27;fill-opacity:1;fill-rule:nonzero;stroke:none"
         id="path200" /><path
         d="m 207.40611,127.88281 -12.488,37.52 c 3.473,0.715 7.02,1.117 10.606,1.187 1.433,0 2.843,-0.039 4.23,-0.129 l 0.535,-38.453 c -0.949,0.008 -1.914,-0.027 -2.883,-0.125"
         style="fill:#c21e27;fill-opacity:1;fill-rule:nonzero;stroke:none"
         id="path202" /><path
         d="m 191.52711,102.64081 c -0.054,0.625 -0.097,1.27 -0.128,1.922 -0.02,0.57 0.031,1.156 0.097,1.668 h 2.461 c 0.09,-0.914 0.238,-1.785 0.434,-2.613 l -2.864,-0.977"
         style="fill:#c21e27;fill-opacity:1;fill-rule:nonzero;stroke:none"
         id="path204" /><path
         d="m 189.18411,117.01981 -39.125,12.406 c 2.465,5.239 5.578,10.063 9.203,14.383 l 32.508,-23.289 c -0.957,-1.047 -1.828,-2.215 -2.586,-3.5"
         style="fill:#c21e27;fill-opacity:1;fill-rule:nonzero;stroke:none"
         id="path206" /><path
         d="m 200.75811,126.39481 -23.754,32.234 c 4.606,2.614 9.512,4.637 14.606,5.993 l 12.406,-37.274 c -1.098,-0.246 -2.192,-0.566 -3.258,-0.953"
         style="fill:#c21e27;fill-opacity:1;fill-rule:nonzero;stroke:none"
         id="path208" /><path
         d="m 186.21111,100.82881 -41.488,-14.163998 c -0.539,3.754 -0.871,7.64 -0.977,11.656 -0.093,2.679998 -0.031,5.319998 0.176,7.909998 h 42.152 c -0.089,-1.762 -0.043,-3.574 0.137,-5.402"
         style="fill:#c21e27;fill-opacity:1;fill-rule:nonzero;stroke:none"
         id="path210" /><path
         d="m 194.31711,122.86381 -32.801,23.496 c 3.765,4.043 8,7.578 12.582,10.512 l 23.496,-31.887 c -1.141,-0.609 -2.242,-1.313 -3.277,-2.121"
         style="fill:#c21e27;fill-opacity:1;fill-rule:nonzero;stroke:none"
         id="path212" /><path
         d="m 200.72311,76.289812 -15.293,-49.524 c -6.774,3.645 -13.012,8.277 -18.485,13.82 l 28.297,40.207 c 1.594,-1.648 3.414,-3.167 5.481,-4.503"
         style="fill:#c21e27;fill-opacity:1;fill-rule:nonzero;stroke:none"
         id="path214" /><path
         d="m 228.81711,100.89481 24.394,-7.725998 c -1.805,-2.961 -3.984,-5.598 -6.449,-7.872 l -18.961,13.582 c 0.391,0.672 0.726,1.347998 1.016,2.015998"
         style="fill:#c21e27;fill-opacity:1;fill-rule:nonzero;stroke:none"
         id="path216" /><path
         d="m 227.74211,117.41481 26.09,19.566 c 1.571,-3.645 2.793,-7.598 3.641,-11.832 l -28.735,-9.809 c -0.296,0.707 -0.628,1.399 -0.996,2.075"
         style="fill:#c21e27;fill-opacity:1;fill-rule:nonzero;stroke:none"
         id="path218" /><path
         d="m 229.78511,112.11781 28.282,9.648 c 0.304,-2.051 0.527,-4.156 0.668,-6.324 0.085,-1.992 0.031,-3.934 -0.141,-5.82 h -28.375 c -0.094,0.839 -0.234,1.675 -0.434,2.496"
         style="fill:#c21e27;fill-opacity:1;fill-rule:nonzero;stroke:none"
         id="path220" /><path
         d="m 200.39911,94.011812 -4.055,-5.761 c -0.82,1.21 -1.563,2.535 -2.203,3.968 l 4.531,3.399 c 0.551,-0.586 1.129,-1.117 1.727,-1.606"
         style="fill:#c21e27;fill-opacity:1;fill-rule:nonzero;stroke:none"
         id="path222" /><path
         d="m 225.84411,96.113812 18.23,-13.059 c -2.472,-1.879 -5.164,-3.422 -7.996,-4.597 l -11.82,16.039 c 0.578,0.515 1.102,1.058 1.586,1.617"
         style="fill:#c21e27;fill-opacity:1;fill-rule:nonzero;stroke:none"
         id="path224" /><path
         d="m 210.74211,89.914812 c 0.028,0 0.055,0 0.082,0 l 0.168,-12.297 c -1.898,0.617 -3.773,1.414 -5.574,2.41 l 3.125,10.125 c 0.797,-0.156 1.539,-0.234 2.199,-0.238"
         style="fill:#c21e27;fill-opacity:1;fill-rule:nonzero;stroke:none"
         id="path226" /><path
         d="m 205.30111,91.121812 -2.84,-9.203 c -1.402,1.027 -2.723,2.203 -3.934,3.542 l 4.684,6.661 c 0.699,-0.387 1.402,-0.719 2.09,-1"
         style="fill:#c21e27;fill-opacity:1;fill-rule:nonzero;stroke:none"
         id="path228" /><path
         d="m 221.52011,92.503812 11.226,-15.234 c -2.605,-0.785 -5.297,-1.266 -8.027,-1.418 l -5.207,15.649 c 0.715,0.3 1.383,0.636 2.008,1.003"
         style="fill:#c21e27;fill-opacity:1;fill-rule:nonzero;stroke:none"
         id="path230" /><path
         d="m 216.28911,90.468812 4.867,-14.629 c -0.086,0.004 -0.171,0.004 -0.261,0.012 -2.078,0.086 -4.282,0.356 -6.508,0.84 l -0.184,13.41 c 0.727,0.094 1.418,0.219 2.086,0.367"
         style="fill:#c21e27;fill-opacity:1;fill-rule:nonzero;stroke:none"
         id="path232" /><path
         d="m 186.46511,109.62181 h -42.191 c 0.761,5.871 2.273,11.461 4.41,16.683 l 39.004,-12.363 c -0.52,-1.336 -0.934,-2.773 -1.223,-4.32"
         style="fill:#c21e27;fill-opacity:1;fill-rule:nonzero;stroke:none"
         id="path234" /><path
         d="m 263.85211,106.23081 h 58.476 c -0.191,-9.214998 -2.277,-19.366998 -6.304,-29.421998 l -55.813,17.695 c 1.731,3.629 2.981,7.562998 3.641,11.726998"
         style="fill:#c21e27;fill-opacity:1;fill-rule:nonzero;stroke:none"
         id="path236" /><path
         d="m 188.23511,92.027812 -37.18,-27.887 c -2.574,5.883 -4.539,12.274 -5.785,19.129 l 41.453,14.149 c 0.355,-1.813 0.859,-3.622 1.512,-5.391"
         style="fill:#c21e27;fill-opacity:1;fill-rule:nonzero;stroke:none"
         id="path238" /><path
         d="m 223.01611,70.250812 17.387,-52.239 c -4.93,-0.672 -10.09,-1.031 -15.485,-1.031 -3.265,0 -6.5,0.18 -9.703,0.543 l -0.746,53.516 c 2.637,-0.477 5.484,-0.75 8.547,-0.789"
         style="fill:#c21e27;fill-opacity:1;fill-rule:nonzero;stroke:none"
         id="path240" /><path
         d="m 258.61011,91.457812 56.093,-17.789 c -3.91,-8.844 -9.34,-17.536 -16.328,-25.344 l -47.066,33.715 c 2.808,2.75 5.281,5.918 7.301,9.418"
         style="fill:#c21e27;fill-opacity:1;fill-rule:nonzero;stroke:none"
         id="path242" /><path
         d="m 248.73511,79.710812 47.316,-33.894 c -6.465,-6.723 -14.145,-12.699 -23.066,-17.449 l -33.489,45.453 c 3.281,1.527 6.399,3.515 9.239,5.89"
         style="fill:#c21e27;fill-opacity:1;fill-rule:nonzero;stroke:none"
         id="path244" /><path
         d="m 211.07411,71.789812 0.75,-53.809 c -8.164,1.258 -16.027,3.691 -23.336,7.227 l 15.243,49.351 c 2.214,-1.121 4.652,-2.058 7.343,-2.769"
         style="fill:#c21e27;fill-opacity:1;fill-rule:nonzero;stroke:none"
         id="path246" /><path
         d="m 236.27411,72.484812 33.648,-45.672 c -7.805,-3.789 -16.512,-6.648 -26.125,-8.281 l -17.246,51.816 c 3.301,0.262 6.57,0.992 9.723,2.137"
         style="fill:#c21e27;fill-opacity:1;fill-rule:nonzero;stroke:none"
         id="path248" /><path
         d="m 229.89911,104.11381 c 0.179,0.762 0.304,1.476 0.371,2.117 h 27.867 c -0.649,-3.605 -1.762,-6.964998 -3.262,-10.034998 l -24.976,7.917998"
         style="fill:#c21e27;fill-opacity:1;fill-rule:nonzero;stroke:none"
         id="path250" /><path
         d="m 192.95711,83.433812 -28.383,-40.332 c -4.722,5.242 -8.8,11.219 -12.066,17.895 l 37.105,27.828 c 0.922,-1.875 2.032,-3.684 3.344,-5.391"
         style="fill:#c21e27;fill-opacity:1;fill-rule:nonzero;stroke:none"
         id="path252" /></g></g></svg>
